name p13_grf_mean_speed_1.6
datacolumns 13
datarows 68
range 0.0000000000 0.6700000000
endheader
time	grf_x_l_mean	grf_x_l_var	grf_y_l_mean	grf_y_l_var	grf_z_l_mean	grf_z_l_var	grf_x_r_mean	grf_x_r_var	grf_y_r_mean	grf_y_r_var	grf_z_r_mean	grf_z_r_var
0.0000000000	188.4948731200	1.0000000000	1047.6962402332	1.0000000000	0.0000000000	0.0000000000	12.4163998185	1.0000000000	11.3304857875	1.0000000000	0.0000000000	0.0000000000
0.0100000000	209.9120319811	1.0000000000	1051.1884200251	1.0000000000	0.0000000000	0.0000000000	17.7132713792	1.0000000000	48.7080051272	1.0000000000	0.0000000000	0.0000000000
0.0200000000	231.0267963881	1.0000000000	1039.9378525281	1.0000000000	0.0000000000	0.0000000000	20.7192406228	1.0000000000	109.4436588284	1.0000000000	0.0000000000	0.0000000000
0.0300000000	250.7525662071	1.0000000000	1011.9394897130	1.0000000000	0.0000000000	0.0000000000	16.2024071052	1.0000000000	191.7286199606	1.0000000000	0.0000000000	0.0000000000
0.0400000000	267.2356165106	1.0000000000	965.0881875874	1.0000000000	0.0000000000	0.0000000000	-1.4893672355	1.0000000000	288.2241365483	1.0000000000	0.0000000000	0.0000000000
0.0500000000	276.8905821357	1.0000000000	897.1669350293	1.0000000000	0.0000000000	0.0000000000	-30.8068997543	1.0000000000	392.3912841444	1.0000000000	0.0000000000	0.0000000000
0.0600000000	277.5871796334	1.0000000000	808.4614790058	1.0000000000	0.0000000000	0.0000000000	-64.0355490136	1.0000000000	501.0633048235	1.0000000000	0.0000000000	0.0000000000
0.0700000000	267.5583920656	1.0000000000	702.4779946917	1.0000000000	0.0000000000	0.0000000000	-95.8415201975	1.0000000000	610.1376147326	1.0000000000	0.0000000000	0.0000000000
0.0800000000	243.9700408108	1.0000000000	583.7853738684	1.0000000000	0.0000000000	0.0000000000	-125.7450697905	1.0000000000	712.1842359234	1.0000000000	0.0000000000	0.0000000000
0.0900000000	207.1683785504	1.0000000000	458.6174123286	1.0000000000	0.0000000000	0.0000000000	-153.0428356764	1.0000000000	800.5087746096	1.0000000000	0.0000000000	0.0000000000
0.1000000000	161.8920765417	1.0000000000	337.4815602724	1.0000000000	0.0000000000	0.0000000000	-175.3469519018	1.0000000000	872.3113317801	1.0000000000	0.0000000000	0.0000000000
0.1100000000	114.3988381823	1.0000000000	231.3186436053	1.0000000000	0.0000000000	0.0000000000	-191.4007286839	1.0000000000	926.6107735365	1.0000000000	0.0000000000	0.0000000000
0.1200000000	71.5335220232	1.0000000000	145.1835476289	1.0000000000	0.0000000000	0.0000000000	-201.8308624064	1.0000000000	963.3968880699	1.0000000000	0.0000000000	0.0000000000
0.1300000000	38.5855568081	1.0000000000	79.8186730393	1.0000000000	0.0000000000	0.0000000000	-207.3674784410	1.0000000000	986.5867089347	1.0000000000	0.0000000000	0.0000000000
0.1400000000	16.1360502709	1.0000000000	35.6805157874	1.0000000000	0.0000000000	0.0000000000	-207.5920180996	1.0000000000	1003.2218368881	1.0000000000	0.0000000000	0.0000000000
0.1500000000	3.1371768547	1.0000000000	10.6926266287	1.0000000000	0.0000000000	0.0000000000	-203.7288615748	1.0000000000	1017.1810203881	1.0000000000	0.0000000000	0.0000000000
0.1600000000	0.0000000000	1.0000000000	0.0000000000	1.0000000000	0.0000000000	0.0000000000	-196.0146967479	1.0000000000	1026.0950223622	1.0000000000	0.0000000000	0.0000000000
0.1700000000	0.0000000000	1.0000000000	0.0000000000	1.0000000000	0.0000000000	0.0000000000	-184.5257122408	1.0000000000	1026.4440289242	1.0000000000	0.0000000000	0.0000000000
0.1800000000	0.0000000000	1.0000000000	0.0000000000	1.0000000000	0.0000000000	0.0000000000	-170.3042922308	1.0000000000	1018.3913410235	1.0000000000	0.0000000000	0.0000000000
0.1900000000	0.0000000000	1.0000000000	0.0000000000	1.0000000000	0.0000000000	0.0000000000	-154.6359649490	1.0000000000	1003.4414295564	1.0000000000	0.0000000000	0.0000000000
0.2000000000	0.0000000000	1.0000000000	0.0000000000	1.0000000000	0.0000000000	0.0000000000	-138.0672756456	1.0000000000	981.0189788885	1.0000000000	0.0000000000	0.0000000000
0.2100000000	0.0000000000	1.0000000000	0.0000000000	1.0000000000	0.0000000000	0.0000000000	-120.7580012042	1.0000000000	950.3247108417	1.0000000000	0.0000000000	0.0000000000
0.2200000000	0.0000000000	1.0000000000	0.0000000000	1.0000000000	0.0000000000	0.0000000000	-103.4616591614	1.0000000000	912.5920907797	1.0000000000	0.0000000000	0.0000000000
0.2300000000	2.7101870371	1.0000000000	1.0317785128	1.0000000000	0.0000000000	0.0000000000	-86.6190024346	1.0000000000	869.1315279235	1.0000000000	0.0000000000	0.0000000000
0.2400000000	2.8171367903	1.0000000000	1.4039396240	1.0000000000	0.0000000000	0.0000000000	-71.1381009515	1.0000000000	820.3321778044	1.0000000000	0.0000000000	0.0000000000
0.2500000000	2.1264419210	1.0000000000	0.8312488239	1.0000000000	0.0000000000	0.0000000000	-57.5090377074	1.0000000000	767.5836250767	1.0000000000	0.0000000000	0.0000000000
0.2600000000	1.6821373546	1.0000000000	0.4145263690	1.0000000000	0.0000000000	0.0000000000	-46.0213168841	1.0000000000	713.5775763660	1.0000000000	0.0000000000	0.0000000000
0.2700000000	1.8065620106	1.0000000000	0.5202362789	1.0000000000	0.0000000000	0.0000000000	-36.4459919611	1.0000000000	660.5320048132	1.0000000000	0.0000000000	0.0000000000
0.2800000000	1.6919158484	1.0000000000	0.3224946430	1.0000000000	0.0000000000	0.0000000000	-28.6553287551	1.0000000000	610.4507339287	1.0000000000	0.0000000000	0.0000000000
0.2900000000	0.0000000000	1.0000000000	0.0000000000	1.0000000000	0.0000000000	0.0000000000	-22.6314006228	1.0000000000	566.1752702900	1.0000000000	0.0000000000	0.0000000000
0.3000000000	1.8153279822	1.0000000000	0.0287106573	1.0000000000	0.0000000000	0.0000000000	-18.0242960585	1.0000000000	530.0486382007	1.0000000000	0.0000000000	0.0000000000
0.3100000000	2.3446115038	1.0000000000	0.5501195037	1.0000000000	0.0000000000	0.0000000000	-14.4574017649	1.0000000000	502.3181941711	1.0000000000	0.0000000000	0.0000000000
0.3200000000	2.2506946806	1.0000000000	0.2926505975	1.0000000000	0.0000000000	0.0000000000	-11.0458500836	1.0000000000	482.2965489725	1.0000000000	0.0000000000	0.0000000000
0.3300000000	0.0000000000	1.0000000000	0.0000000000	1.0000000000	0.0000000000	0.0000000000	-7.5619178841	1.0000000000	470.4875700281	1.0000000000	0.0000000000	0.0000000000
0.3400000000	0.0000000000	1.0000000000	0.0000000000	1.0000000000	0.0000000000	0.0000000000	-4.0161487566	1.0000000000	468.0620760359	1.0000000000	0.0000000000	0.0000000000
0.3500000000	1.9491789607	1.0000000000	0.4836888334	1.0000000000	0.0000000000	0.0000000000	-0.1278861171	1.0000000000	474.5732558528	1.0000000000	0.0000000000	0.0000000000
0.3600000000	1.6284072885	1.0000000000	0.5114930469	1.0000000000	0.0000000000	0.0000000000	4.7148492860	1.0000000000	488.2474500046	1.0000000000	0.0000000000	0.0000000000
0.3700000000	1.2492368276	1.0000000000	0.1626458738	1.0000000000	0.0000000000	0.0000000000	10.4954154954	1.0000000000	508.6849566207	1.0000000000	0.0000000000	0.0000000000
0.3800000000	0.9325369184	1.0000000000	0.1173402525	1.0000000000	0.0000000000	0.0000000000	16.7351415043	1.0000000000	536.9497689616	1.0000000000	0.0000000000	0.0000000000
0.3900000000	0.6514445649	1.0000000000	0.3067301539	1.0000000000	0.0000000000	0.0000000000	23.7041396036	1.0000000000	572.8572799750	1.0000000000	0.0000000000	0.0000000000
0.4000000000	0.4649217267	1.0000000000	0.2875759108	1.0000000000	0.0000000000	0.0000000000	31.8264165955	1.0000000000	614.4579481389	1.0000000000	0.0000000000	0.0000000000
0.4100000000	0.0000000000	1.0000000000	0.0000000000	1.0000000000	0.0000000000	0.0000000000	41.2895488811	1.0000000000	659.9782880470	1.0000000000	0.0000000000	0.0000000000
0.4200000000	0.0000000000	1.0000000000	0.0000000000	1.0000000000	0.0000000000	0.0000000000	52.3728607000	1.0000000000	708.2944283607	1.0000000000	0.0000000000	0.0000000000
0.4300000000	0.0000000000	1.0000000000	0.0000000000	1.0000000000	0.0000000000	0.0000000000	65.3800174387	1.0000000000	757.9175683375	1.0000000000	0.0000000000	0.0000000000
0.4400000000	0.0000000000	1.0000000000	0.0000000000	1.0000000000	0.0000000000	0.0000000000	79.7849825906	1.0000000000	807.0469853243	1.0000000000	0.0000000000	0.0000000000
0.4500000000	0.0000000000	1.0000000000	0.0000000000	1.0000000000	0.0000000000	0.0000000000	95.0219583912	1.0000000000	853.8768944486	1.0000000000	0.0000000000	0.0000000000
0.4600000000	0.0000000000	1.0000000000	0.0000000000	1.0000000000	0.0000000000	0.0000000000	111.0846147764	1.0000000000	896.1611879058	1.0000000000	0.0000000000	0.0000000000
0.4700000000	0.0000000000	1.0000000000	0.0000000000	1.0000000000	0.0000000000	0.0000000000	127.8544159329	1.0000000000	931.6690878131	1.0000000000	0.0000000000	0.0000000000
0.4800000000	0.0000000000	1.0000000000	0.0000000000	1.0000000000	0.0000000000	0.0000000000	144.9443111685	1.0000000000	959.4153315235	1.0000000000	0.0000000000	0.0000000000
0.4900000000	8.0956140413	1.0000000000	9.6284666525	1.0000000000	0.0000000000	0.0000000000	162.4546352217	1.0000000000	979.1791371740	1.0000000000	0.0000000000	0.0000000000
0.5000000000	11.6805516690	1.0000000000	47.6746441510	1.0000000000	0.0000000000	0.0000000000	180.9024904006	1.0000000000	989.4432453022	1.0000000000	0.0000000000	0.0000000000
0.5100000000	13.7388243046	1.0000000000	110.4794188309	1.0000000000	0.0000000000	0.0000000000	199.9765089678	1.0000000000	987.2386031625	1.0000000000	0.0000000000	0.0000000000
0.5200000000	10.3796567325	1.0000000000	197.3396345892	1.0000000000	0.0000000000	0.0000000000	218.8651356022	1.0000000000	970.2451766227	1.0000000000	0.0000000000	0.0000000000
0.5300000000	-3.7791342191	1.0000000000	300.6790717950	1.0000000000	0.0000000000	0.0000000000	236.3446359152	1.0000000000	937.2790796982	1.0000000000	0.0000000000	0.0000000000
0.5400000000	-30.2431403869	1.0000000000	409.6110374679	1.0000000000	0.0000000000	0.0000000000	249.8695083751	1.0000000000	886.7621428010	1.0000000000	0.0000000000	0.0000000000
0.5500000000	-63.4078775432	1.0000000000	516.0636401470	1.0000000000	0.0000000000	0.0000000000	257.1212782599	1.0000000000	817.2782621020	1.0000000000	0.0000000000	0.0000000000
0.5600000000	-96.5165234676	1.0000000000	616.1223194873	1.0000000000	0.0000000000	0.0000000000	256.2705794448	1.0000000000	729.8300780691	1.0000000000	0.0000000000	0.0000000000
0.5700000000	-127.5114822380	1.0000000000	706.5625114017	1.0000000000	0.0000000000	0.0000000000	244.2825273100	1.0000000000	627.5670983451	1.0000000000	0.0000000000	0.0000000000
0.5800000000	-156.4757025406	1.0000000000	783.5932927933	1.0000000000	0.0000000000	0.0000000000	219.4079425864	1.0000000000	514.7645435135	1.0000000000	0.0000000000	0.0000000000
0.5900000000	-181.4575920258	1.0000000000	845.7911119689	1.0000000000	0.0000000000	0.0000000000	183.5893121403	1.0000000000	398.6931956721	1.0000000000	0.0000000000	0.0000000000
0.6000000000	-200.3502601294	1.0000000000	895.9675192193	1.0000000000	0.0000000000	0.0000000000	141.0608214836	1.0000000000	289.6954287681	1.0000000000	0.0000000000	0.0000000000
0.6100000000	-213.2024222337	1.0000000000	938.5545272372	1.0000000000	0.0000000000	0.0000000000	97.2989789461	1.0000000000	195.9157223469	1.0000000000	0.0000000000	0.0000000000
0.6200000000	-219.8646724795	1.0000000000	976.4313279424	1.0000000000	0.0000000000	0.0000000000	58.6671546583	1.0000000000	120.2524054943	1.0000000000	0.0000000000	0.0000000000
0.6300000000	-219.2484064247	1.0000000000	1010.4509495363	1.0000000000	0.0000000000	0.0000000000	29.6556995835	1.0000000000	63.6256325202	1.0000000000	0.0000000000	0.0000000000
0.6400000000	-212.1028802685	1.0000000000	1039.8058992946	1.0000000000	0.0000000000	0.0000000000	10.8180206137	1.0000000000	26.4752040764	1.0000000000	0.0000000000	0.0000000000
0.6500000000	-199.6581560111	1.0000000000	1061.7054973757	1.0000000000	0.0000000000	0.0000000000	0.4680515898	1.0000000000	5.9420665015	1.0000000000	0.0000000000	0.0000000000
0.6600000000	-182.5379789584	1.0000000000	1072.2568384331	1.0000000000	0.0000000000	0.0000000000	0.0000000000	1.0000000000	0.0000000000	1.0000000000	0.0000000000	0.0000000000
0.6700000000	-162.5635281537	1.0000000000	1069.3266824587	1.0000000000	0.0000000000	0.0000000000	0.0000000000	1.0000000000	0.0000000000	1.0000000000	0.0000000000	0.0000000000
